<svg height="511pt" viewBox="1 -15 511.9986 511" width="511pt" xmlns="http://www.w3.org/2000/svg"><path d="m496.765625 115.347656-98.679687-98.492187c-4.070313-4.0625-12.097657-7.382813-17.847657-7.382813h-252.050781c-5.75 0-10.453125 4.703125-10.453125 10.449219v15.332031c22.851563 14.019532 47 33.082032 70.113281 56.183594 18.140625 18.128906 33.789063 36.902344 46.464844 55.179688v17.457031c0 4.710937 3.851562 8.5625 8.5625 8.5625h15.765625c4.96875 4.472656 9.910156 9.148437 14.800781 14.039062 60.796875 60.769531 90.566406 129.546875 66.488282 153.613281-24.082032 24.066407-92.886719-5.6875-153.683594-66.457031-4.890625-4.886719-9.574219-9.828125-14.046875-14.789062v-15.761719c0-4.707031-3.855469-8.558594-8.5625-8.558594h-17.46875c-9.394531-6.511718-18.925781-13.816406-28.429688-21.832031v248.957031c0 5.75 4.699219 10.449219 10.449219 10.449219h365.523438c5.75 0 10.449218-4.699219 10.449218-10.449219v-328.667968c0-5.75-3.328125-13.773438-7.394531-17.832032zm0 0" fill="#fff"/><path d="m390.6875 112.28125c0 5.746094 4.703125 10.449219 10.449219 10.449219h92.574219c5.75 0 7.121093-3.324219 3.054687-7.382813l-98.679687-98.492187c-4.070313-4.0625-7.398438-2.679688-7.398438 3.066406zm0 0" fill="#76ffd9"/><path d="m160.054688 65.96875v-46.046875c0-5.75 4.703124-10.449219 10.453124-10.449219h-42.320312c-5.75 0-10.453125 4.699219-10.453125 10.449219v15.332031c13.804687 8.46875 28.085937 18.785156 42.320313 30.714844zm0 0" fill="#e1eaf8"/><path d="m160.054688 461.847656v-227.128906h-13.886719c-9.398438-6.511719-18.925781-13.8125-28.433594-21.832031v248.960937c0 5.746094 4.703125 10.449219 10.453125 10.449219h42.320312c-5.75 0-10.453124-4.703125-10.453124-10.449219zm0 0" fill="#e1eaf8"/><path d="m421.089844 112.28125v-72.46875l-23.003906-22.957031c-4.070313-4.0625-7.398438-2.679688-7.398438 3.066406v92.359375c0 5.746094 4.703125 10.449219 10.449219 10.449219h30.402343c-5.75 0-10.449218-4.703125-10.449218-10.449219zm0 0" fill="#5de0bf"/><path d="m348.046875 311.414062c-2.75-32.386718-30.511719-80.664062-74.605469-124.738281-4.890625-4.890625-9.832031-9.566406-14.800781-14.042969h-15.765625c-4.710938 0-8.5625-3.851562-8.5625-8.558593v-17.457031c-12.675781-18.277344-28.324219-37.050782-46.464844-55.179688-67.554687-67.523438-144.007812-100.582031-170.761718-73.839844-26.753907 26.742188 6.320312 103.160156 73.875 170.679688 18.140624 18.128906 36.917968 33.773437 55.207031 46.441406h17.464843c4.710938 0 8.5625 3.855469 8.5625 8.5625v15.757812c4.476563 4.964844 9.160157 9.90625 14.046876 14.789063 44.09375 44.074219 92.394531 71.824219 124.796874 74.574219zm0 0" fill="#ffc843"/><path d="m329.632812 329.804688c-32.402343-2.746094-80.699218-30.496094-124.796874-74.570313-4.890626-4.882813-9.570313-9.824219-14.046876-14.789063v-15.761718c0-4.707032-3.851562-8.558594-8.5625-8.558594h-17.464843c-18.289063-12.667969-37.066407-28.3125-55.207031-46.441406-59.507813-59.480469-92.25-125.851563-80.917969-159.101563-4.484375 1.527344-8.375 3.839844-11.550781 7.015625-26.753907 26.742188 6.320312 103.160156 73.875 170.679688 18.136718 18.128906 36.917968 33.773437 55.207031 46.441406h17.464843c4.710938 0 8.5625 3.855469 8.5625 8.5625v15.757812c4.476563 4.964844 9.15625 9.90625 14.046876 14.789063 44.09375 44.074219 92.394531 71.824219 124.796874 74.574219zm0 0" fill="#ffa816"/><path d="m348.039062 311.421875c-1.921874-22.664063-16.078124-53.097656-39.523437-84.441406l-1.191406 71.574219c-.039063 2.339843-1.03125 4.472656-2.605469 6.027343-1.574219 1.558594-3.730469 2.539063-6.105469 2.574219l-72.773437 1.183594c31.609375 23.757812 62.359375 38.121094 85.203125 40.054687zm0 0" fill="#ff904d"/><path d="m135.46875 135.316406c-1.882812 1.859375-4.457031 3.03125-7.292969 3.078125l-79.003906 1.28125c11.78125 16.183594 25.820313 32.640625 41.789063 48.601563 4.144531 4.144531 8.324218 8.152344 12.523437 12.027344l85.246094-1.382813c2.832031-.046875 5.410156-1.21875 7.292969-3.078125 1.882812-1.859375 3.070312-4.410156 3.113281-7.207031l1.398437-83.972657c-4.078125-4.433593-8.3125-8.847656-12.6875-13.222656-15.753906-15.746094-31.988281-29.617187-47.964844-41.289062l-1.300781 77.960937c-.039062 2.792969-1.226562 5.34375-3.113281 7.203125zm0 0" fill="#ff904d"/><g fill="#434c54"><path d="m295.742188 345.574219c-.703126-.191407-1.410157-.390625-2.125-.597657.714843.207032 1.421874.40625 2.125.597657zm0 0"/><path d="m292.054688 344.511719c-.515626-.160157-1.035157-.320313-1.554688-.488281.519531.167968 1.039062.328124 1.554688.488281zm0 0"/><path d="m288.859375 343.480469c-.738281-.246094-1.476563-.5-2.21875-.765625.742187.265625 1.480469.519531 2.21875.765625zm0 0"/><path d="m299.105469 346.425781c-.496094-.117187-.988281-.234375-1.488281-.359375.5.125.992187.242188 1.488281.359375zm0 0"/><path d="m301.992188 347.066406c-.480469-.097656-.96875-.207031-1.453126-.3125.488282.105469.972657.214844 1.453126.3125zm0 0"/><path d="m284.691406 342.011719c-.527344-.195313-1.054687-.398438-1.585937-.601563.53125.203125 1.058593.40625 1.585937.601563zm0 0"/><path d="m305.785156 347.746094c-.453125-.070313-.90625-.140625-1.363281-.21875.457031.078125.910156.148437 1.363281.21875zm0 0"/><path d="m273.734375 337.472656c-.542969-.246094-1.082031-.492187-1.628906-.746094.546875.253907 1.085937.5 1.628906.746094zm0 0"/><path d="m277.046875 338.945312c-.515625-.222656-1.035156-.453124-1.554687-.683593.519531.230469 1.039062.460937 1.554687.683593zm0 0"/><path d="m281.445312 340.761719c-.519531-.207031-1.039062-.410157-1.5625-.625.527344.214843 1.046876.417969 1.5625.625zm0 0"/><path d="m97.082031 194.269531c-2.046875-1.964843-4.085937-3.960937-6.121093-5.992187 2.035156 2.03125 4.074218 4.027344 6.121093 5.992187zm0 0"/><path d="m79.15625 176.011719c-1.679688-1.8125-3.332031-3.632813-4.960938-5.453125 1.628907 1.820312 3.28125 3.640625 4.960938 5.453125zm0 0"/><path d="m308.558594 348.136719c-.457032-.054688-.917969-.117188-1.382813-.183594.464844.066406.925781.128906 1.382813.183594zm0 0"/><path d="m270.058594 335.75c-.757813-.363281-1.519532-.734375-2.28125-1.113281.761718.378906 1.523437.75 2.28125 1.113281zm0 0"/><path d="m68.234375 163.746094c-1.570313-1.832032-3.113281-3.667969-4.632813-5.503906 1.515626 1.835937 3.058594 3.671874 4.632813 5.503906zm0 0"/><path d="m90.960938 188.277344c-1.902344-1.902344-3.773438-3.8125-5.621094-5.726563 1.847656 1.914063 3.71875 3.824219 5.621094 5.726563zm0 0"/><path d="m84.953125 182.152344c-1.773437-1.839844-3.511719-3.6875-5.230469-5.535156 1.71875 1.847656 3.460938 3.695312 5.230469 5.535156zm0 0"/><path d="m63.109375 157.644531c-1.539063-1.871093-3.054687-3.742187-4.539063-5.613281 1.484376 1.871094 2.996094 3.742188 4.539063 5.613281zm0 0"/><path d="m58.234375 151.605469c-1.523437-1.929688-3.023437-3.855469-4.484375-5.78125 1.460938 1.925781 2.960938 3.851562 4.484375 5.78125zm0 0"/><path d="m73.582031 169.871094c-1.613281-1.8125-3.207031-3.632813-4.769531-5.453125 1.5625 1.820312 3.152344 3.640625 4.769531 5.453125zm0 0"/><path d="m237.289062 316.558594c-.597656-.40625-1.195312-.820313-1.789062-1.234375.59375.414062 1.191406.828125 1.789062 1.234375zm0 0"/><path d="m254.085938 327.226562c-.554688-.324218-1.109376-.648437-1.667969-.980468.558593.332031 1.113281.65625 1.667969.980468zm0 0"/><path d="m257.625 329.261719c-.546875-.308594-1.09375-.625-1.644531-.9375.550781.3125 1.097656.628906 1.644531.9375zm0 0"/><path d="m245.753906 322.144531c-.578125-.367187-1.15625-.738281-1.738281-1.113281.582031.378906 1.160156.746094 1.738281 1.113281zm0 0"/><path d="m241.972656 319.699219c-.800781-.527344-1.605468-1.058594-2.414062-1.601563.808594.542969 1.613281 1.074219 2.414062 1.601563zm0 0"/><path d="m233.632812 314.011719c-.589843-.417969-1.183593-.832031-1.777343-1.257813.59375.425782 1.183593.839844 1.777343 1.257813zm0 0"/><path d="m249.632812 324.566406c-.632812-.390625-1.269531-.785156-1.90625-1.183594.636719.398438 1.273438.792969 1.90625 1.183594zm0 0"/><path d="m265.777344 333.632812c-.546875-.277343-1.097656-.5625-1.648438-.851562.550782.289062 1.101563.574219 1.648438.851562zm0 0"/><path d="m226.90625 309.132812c.605469.453126 1.214844.90625 1.820312 1.351563-.605468-.445313-1.214843-.898437-1.820312-1.351563zm0 0"/><path d="m262.230469 331.78125c-.515625-.277344-1.03125-.546875-1.546875-.828125.515625.28125 1.03125.550781 1.546875.828125zm0 0"/><path d="m310.042969 348.292969c.328125.035156.667969.082031.996093.109375l3.628907-3.628906-3.625 3.621093c-.328125-.027343-.667969-.066406-1-.101562zm0 0"/></g><path d="m244.015625 321.03125c-.679687-.4375-1.359375-.882812-2.042969-1.332031.683594.449219 1.363282.894531 2.042969 1.332031zm0 0" fill="#ff8828"/><path d="m235.5 315.320312c-.621094-.429687-1.246094-.867187-1.867188-1.308593.621094.441406 1.246094.878906 1.867188 1.308593zm0 0" fill="#ff8828"/><path d="m225.84375 308.339844c.351562.269531.707031.527344 1.0625.792968-.351562-.261718-.703125-.527343-1.054688-.792968zm0 0" fill="#ff8828"/><path d="m304.421875 347.527344c-.800781-.140625-1.613281-.296875-2.429687-.460938.816406.164063 1.628906.320313 2.429687.460938zm0 0" fill="#ff8828"/><path d="m307.175781 347.953125c-.460937-.0625-.925781-.132813-1.390625-.207031.464844.074218.929688.144531 1.390625.207031zm0 0" fill="#ff8828"/><path d="m239.5625 318.097656c-.757812-.507812-1.515625-1.019531-2.273438-1.539062.757813.519531 1.515626 1.03125 2.273438 1.539062zm0 0" fill="#ff8828"/><path d="m231.855469 312.753906c-1.039063-.746094-2.085938-1.503906-3.128907-2.269531 1.046876.765625 2.089844 1.523437 3.128907 2.269531zm0 0" fill="#ff8828"/><path d="m310.042969 348.292969c-.492188-.046875-.984375-.097657-1.484375-.15625.5.058593.992187.109375 1.484375.15625zm0 0" fill="#ff8828"/><path d="m252.417969 326.246094c-.925781-.550782-1.855469-1.113282-2.785157-1.679688.929688.570313 1.859376 1.128906 2.785157 1.679688zm0 0" fill="#ff8828"/><path d="m260.679688 330.953125c-1.011719-.550781-2.035157-1.117187-3.054688-1.691406 1.023438.574219 2.042969 1.140625 3.054688 1.691406zm0 0" fill="#ff8828"/><path d="m283.105469 341.410156c-.550781-.210937-1.105469-.425781-1.660157-.648437.554688.222656 1.109376.4375 1.660157.648437zm0 0" fill="#ff8828"/><path d="m255.980469 328.324219c-.628907-.359375-1.261719-.726563-1.894531-1.097657.632812.371094 1.265624.734376 1.894531 1.097657zm0 0" fill="#ff8828"/><path d="m286.640625 342.714844c-.648437-.230469-1.296875-.460938-1.949219-.703125.652344.242187 1.300782.472656 1.949219.703125zm0 0" fill="#ff8828"/><path d="m279.882812 340.136719c-.9375-.382813-1.882812-.78125-2.835937-1.191407.953125.410157 1.898437.808594 2.835937 1.191407zm0 0" fill="#ff8828"/><path d="m272.105469 336.726562c-.679688-.320312-1.363281-.644531-2.046875-.976562.683594.332031 1.367187.65625 2.046875.976562zm0 0" fill="#ff8828"/><path d="m275.492188 338.261719c-.585938-.257813-1.171876-.519531-1.757813-.789063.585937.269532 1.171875.53125 1.757813.789063zm0 0" fill="#ff8828"/><path d="m264.128906 332.78125c-.628906-.328125-1.261718-.664062-1.898437-1 .636719.335938 1.269531.671875 1.898437 1zm0 0" fill="#ff8828"/><path d="m247.726562 323.382812c-.65625-.40625-1.3125-.820312-1.972656-1.238281.660156.417969 1.316406.832031 1.972656 1.238281zm0 0" fill="#ff8828"/><path d="m297.617188 346.066406c-.621094-.15625-1.246094-.324218-1.875-.492187.628906.167969 1.253906.335937 1.875.492187zm0 0" fill="#ff8828"/><path d="m290.5 344.023438c-.546875-.175782-1.09375-.359376-1.644531-.542969.550781.183593 1.097656.367187 1.644531.542969zm0 0" fill="#ff8828"/><path d="m267.777344 334.636719c-.664063-.332031-1.332032-.664063-2-1.003907.667968.339844 1.335937.671876 2 1.003907zm0 0" fill="#ff8828"/><path d="m300.539062 346.753906c-.476562-.105468-.953124-.214844-1.433593-.328125.480469.113281.957031.222657 1.433593.328125zm0 0" fill="#ff8828"/><path d="m293.617188 344.976562c-.515626-.152343-1.035157-.304687-1.5625-.464843.527343.160156 1.046874.3125 1.5625.464843zm0 0" fill="#ff8828"/><path d="m231.855469 312.753906c.59375.425782 1.183593.839844 1.777343 1.257813.621094.441406 1.242188.878906 1.863282 1.3125.597656.414062 1.195312.828125 1.792968 1.234375.757813.519531 1.515626 1.03125 2.269532 1.539062.808594.542969 1.613281 1.074219 2.414062 1.601563.683594.449219 1.363282.894531 2.042969 1.332031.582031.378906 1.160156.746094 1.738281 1.113281.660156.417969 1.316406.828125 1.972656 1.238281.636719.398438 1.273438.792969 1.90625 1.183594.933594.566406 1.859376 1.128906 2.785157 1.679688.558593.332031 1.113281.65625 1.667969.980468.632812.371094 1.265624.738282 1.894531 1.097657.550781.3125 1.097656.628906 1.644531.9375 1.023438.574219 2.042969 1.140625 3.054688 1.691406.519531.28125 1.035156.550781 1.550781.828125.632812.335938 1.265625.671875 1.898437 1 .550782.285156 1.097656.570312 1.648438.851562.667968.339844 1.335937.671876 2 1.003907.761718.378906 1.519531.75 2.277344 1.113281.6875.328125 1.371093.65625 2.050781.972656.542969.253906 1.085937.503906 1.628906.75.585937.265625 1.171875.53125 1.757813.789063.519531.230469 1.039062.460937 1.554687.683593.949219.410157 1.894531.804688 2.835937 1.191407.523438.214843 1.042969.417969 1.5625.625.554688.21875 1.105469.4375 1.65625.648437.53125.203125 1.058594.40625 1.585938.601563.652344.242187 1.300781.472656 1.949219.703125.742187.265625 1.480469.519531 2.214843.765625.550782.183593 1.101563.367187 1.644532.542969.519531.164062 1.039062.328124 1.558594.488281.523437.160156 1.042968.3125 1.5625.464843.710937.207032 1.417968.40625 2.121093.597657.628907.167969 1.253907.335937 1.875.492187.5.125.992188.242188 1.488281.359375.480469.113281.960938.222657 1.4375.328125.484376.105469.972657.214844 1.449219.3125.816407.164063 1.628907.320313 2.429688.460938.457031.078125.910156.148437 1.363281.21875.464844.070312.929688.144531 1.390625.207031.464844.066406.925781.128906 1.382813.183594.5.058593.992187.109375 1.484374.15625.332032.035156.671876.074219 1 .101562l3.625-3.621093 14.964844-14.96875c-16.367187-1.386719-36.800781-9.164063-58.695312-22.199219l-45.085938.734375c.351563.265625.703125.53125 1.054688.789062.609375.453125 1.214844.910156 1.820312 1.355469 1.050782.765625 2.09375 1.523437 3.132813 2.269531zm0 0" fill="#ff8025"/><path d="m68.8125 164.417969c-.195312-.222657-.386719-.445313-.578125-.671875.191406.226562.382813.449218.578125.671875zm0 0" fill="#ff8828"/><path d="m97.257812 194.441406c-.058593-.054687-.117187-.113281-.175781-.171875.058594.058594.117188.117188.175781.171875zm0 0" fill="#ff8828"/><path d="m85.339844 182.550781c-.128906-.132812-.257813-.265625-.386719-.398437.128906.132812.257813.265625.386719.398437zm0 0" fill="#ff8828"/><path d="m58.570312 152.03125c-.109374-.140625-.222656-.28125-.335937-.425781.113281.144531.226563.285156.335937.425781zm0 0" fill="#ff8828"/><path d="m63.601562 158.242188c-.164062-.199219-.328124-.398438-.492187-.597657.164063.199219.328125.398438.492187.597657zm0 0" fill="#ff8828"/><path d="m53.75 145.824219c-.046875-.0625-.09375-.125-.140625-.183594.046875.0625.09375.121094.140625.183594zm0 0" fill="#ff8828"/><path d="m74.195312 170.558594c-.203124-.230469-.410156-.457032-.613281-.6875.203125.230468.410157.457031.613281.6875zm0 0" fill="#ff8828"/><path d="m79.722656 176.617188c-.1875-.199219-.378906-.402344-.566406-.605469.1875.203125.378906.402343.566406.605469zm0 0" fill="#ff8828"/><path d="m142.832031 199.664062c-11.160156-9.019531-22.332031-19.046874-33.277343-29.980468-10.050782-10.046875-19.332032-20.289063-27.773438-30.535156l-32.605469.527343c1.441407 1.984375 2.921875 3.972657 4.433594 5.964844.046875.058594.09375.121094.140625.183594 1.460938 1.925781 2.960938 3.851562 4.484375 5.78125.113281.144531.222656.285156.335937.425781 1.484376 1.871094 3 3.742188 4.539063 5.613281.164063.199219.328125.398438.492187.597657 1.519532 1.835937 3.0625 3.671874 4.632813 5.503906.191406.226562.382813.449218.578125.671875 1.5625 1.820312 3.15625 3.640625 4.769531 5.453125.203125.230468.410157.457031.613281.6875 1.628907 1.820312 3.28125 3.640625 4.960938 5.453125.1875.203125.378906.40625.566406.605469 1.71875 1.851562 3.460938 3.695312 5.230469 5.535156.128906.132812.257813.265625.386719.398437 1.847656 1.914063 3.71875 3.824219 5.621094 5.726563 2.035156 2.03125 4.074218 4.027344 6.121093 5.992187.058594.058594.117188.117188.175781.171875 2.070313 1.988282 4.144532 3.941406 6.226563 5.863282zm0 0" fill="#ff8025"/><path d="m348.097656 311.359375 13.585938 50.671875-50.695313-13.578125zm0 0" fill="#e26403"/><path d="m242.082031 253.566406c1.53125 1.53125 3.535157 2.292969 5.539063 2.292969 2.007812 0 4.011718-.765625 5.542968-2.296875 3.0625-3.058594 3.058594-8.023438 0-11.082031l-156.058593-155.980469c-3.058594-3.0625-8.019531-3.058594-11.082031 0-3.058594 3.0625-3.058594 8.027344.003906 11.085938zm0 0" fill="#434c54"/><path d="m504.160156 398.621094c4.332032 0 7.839844-3.511719 7.839844-7.835938v-257.605468c0-7.8125-4.171875-17.863282-9.695312-23.378907l-98.683594-98.496093c-5.523438-5.511719-15.574219-9.671876-23.382813-9.671876h-252.050781c-10.085938 0-18.289062 8.207032-18.289062 18.289063v1.714844c-4.207032-2.3125-8.378907-4.460938-12.503907-6.425781-3.90625-1.863282-8.582031-.203126-10.445312 3.703124s-.207031 8.582032 3.699219 10.445313c13.359374 6.371094 27.320312 14.773437 41.332031 24.769531l15.480469 11.679688c11.835937 9.429687 23.5625 19.894531 34.847656 31.171875 3.539062 3.539062 6.972656 7.121093 10.339844 10.71875l15.386718 17.421875c6.585938 7.898437 12.761719 15.898437 18.4375 23.964844v14.992187c0 9.039063 7.359375 16.394531 16.402344 16.394531h12.738281c4.183594 3.828125 8.304688 7.769532 12.285157 11.746094 12.121093 12.117188 23.132812 24.695312 32.734374 37.300781l15.308594 22.027344c6.160156 9.8125 11.34375 19.484375 15.378906 28.8125 4.523438 10.457031 7.378907 19.953125 8.542969 28.152344l-10.320312 10.316406-52.339844-52.320313c-3.066406-3.058593-8.027344-3.058593-11.085937.003907-3.058594 3.0625-3.058594 8.023437.003906 11.085937l52.335937 52.308594-10.320312 10.316406c-8.203125-1.167968-17.707031-4.019531-28.171875-8.542968-9.597656-4.148438-19.566406-9.503907-29.671875-15.898438l-21.910157-15.320312c-12.371093-9.464844-24.707031-20.289063-36.601562-32.175782-3.976562-3.972656-7.917969-8.09375-11.746094-12.273437v-12.730469c0-9.042969-7.359375-16.398438-16.402344-16.398438h-15c-8.332031-5.859374-16.59375-12.246093-24.75-19.070312l-17.351562-15.394531c-3.367188-3.160157-6.714844-6.371094-10.027344-9.683594-11.554687-11.546875-22.199218-23.472656-31.734375-35.472656l-11.65625-15.484375c-11.429687-16.089844-20.699219-32.078125-27.261719-47.246094-12.40625-28.660156-13.582031-51.039062-3.222656-61.390625 8.855469-8.851563 24.621094-7.6875 36.285156-5.152344 4.226563.917969 8.402344-1.761719 9.324219-5.992187.921875-4.230469-1.761719-8.402344-5.992187-9.324219-22.199219-4.824219-39.730469-1.582031-50.699219 9.382813-15.371094 15.363281-15.394531 43.3125-.078125 78.703124 14.335938 33.125 40.601562 69.726563 73.953125 103.0625 8.003906 8 16.175781 15.578126 24.476563 22.707032v245.320312c0 10.082032 8.207031 18.285156 18.289062 18.285156h365.523438c10.082031 0 18.289062-8.203124 18.289062-18.285156v-33.445312c0-4.328125-3.507812-7.835938-7.839844-7.835938-4.328125 0-7.835937 3.507813-7.835937 7.835938v33.445312c0 1.417969-1.195313 2.613282-2.613281 2.613282h-365.523438c-1.417969 0-2.613281-1.195313-2.613281-2.613282v-232.53125c5.339843 4.140625 10.722656 8.097656 16.128906 11.847656 1.3125.90625 2.867187 1.394532 4.464844 1.394532h17.464843c.378907 0 .726563.34375.726563.722656v15.757812c0 1.941407.71875 3.808594 2.015625 5.25 4.636719 5.140626 9.457031 10.21875 14.328125 15.085938 30.085937 30.074219 63.128906 53.757812 93.039063 66.691406 13.007812 5.625 24.917968 8.960938 35.421874 10.015625l48.460938 12.976563 8.246094 8.246094-14.871094-2.484376c-4.269531-.707031-8.308594 2.171876-9.023438 6.441407-.710937 4.269531 2.171876 8.308593 6.441407 9.019531l35.769531 5.96875c.246094.042969.488281.070312.734375.09375l20.460937 20.453125c1.53125 1.53125 3.539063 2.292969 5.542969 2.292969 2.003907 0 4.011719-.765625 5.542969-2.292969 3.0625-3.0625 3.058594-8.027344-.003906-11.085937l-20.25-20.238282c-.023438-.359375-.058594-.71875-.117188-1.082031l-5.890625-35.347656c-.714843-4.269531-4.75-7.152344-9.019531-6.441407-4.269531.714844-7.15625 4.75-6.441406 9.019532l2.476562 14.867187-8.515625-8.511719-13.015625-48.558593c-1.0625-10.472657-4.378906-22.328125-9.988281-35.285157-12.941406-29.898437-36.636719-62.925781-66.726563-93-4.871093-4.871093-9.949218-9.6875-15.089843-14.316406-1.4375-1.296875-3.304688-2.015625-5.246094-2.015625h-15.765625c-.378906 0-.722656-.34375-.722656-.722656v-17.457031c0-1.597656-.488282-3.15625-1.398438-4.464844-13.375-19.285156-29.3125-38.214844-47.367187-56.257812-21.671875-21.664063-45.007813-40.523438-67.8125-54.976563v-11c0-1.414063 1.195312-2.613281 2.613281-2.613281h252.054688c.773437 0 1.667968.121094 2.609374.328125v94.644531c0 10.082031 8.203126 18.285156 18.289063 18.285156h27.265625c4.328125 0 7.835938-3.507812 7.835938-7.835937 0-4.332031-3.507813-7.839844-7.835938-7.839844h-27.265625c-1.417969 0-2.613281-1.195313-2.613281-2.609375v-83.914062l86.691406 86.523437h-18.152344c-4.328125 0-7.835937 3.507813-7.835937 7.839844 0 4.328125 3.507812 7.835937 7.835937 7.835937h28.933594c.203125.941406.328125 1.835938.328125 2.613282v257.605468c-.003906 4.324219 3.503906 7.835938 7.832031 7.835938zm-153.5625-47.671875-24.464844-6.550781 17.910157-17.902344zm0 0" fill="#434c54"/></svg>